# xmcd
#
# Track frame offsets:
#	150
#	13419
#	28840
#	40240
#	52565
#	70045
#	83593
#	101682
#	116901
#	132396
#	149304
#	164597
#	179912
#
# Disc length: 2576 seconds
#
# Revision: 1
# Processed by: cddbd v1.5.2PL0 Copyright (c) Steve Scherf et al.
# Submitted via: audiograbber 1.83.01
#
DISCID=b90a0e0d
DTITLE=Annett Louisan - Boheme
DYEAR=2004
DGENRE=
TTITLE0=Das Spiel
TTITLE1=Die Lüge
TTITLE2=Die Dinge
TTITLE3=Das Gefühl
TTITLE4=Daddy
TTITLE5=Die Katze
TTITLE6=Der Schöne
TTITLE7=Die Gelegenheit
TTITLE8=Der Blender
TTITLE9=Die Trägheit
TTITLE10=Die Formel
TTITLE11=Das Liebeslied
TTITLE12=Das Spiel [Radiomix]
EXTD=
EXTT0=
EXTT1=
EXTT2=
EXTT3=
EXTT4=
EXTT5=
EXTT6=
EXTT7=
EXTT8=
EXTT9=
EXTT10=
EXTT11=
EXTT12=
PLAYORDER=
